<svg width="103" height="46" viewBox="0 0 103 46" fill="none" xmlns="http://www.w3.org/2000/svg">
<path d="M27.5402 11.6262C27.5052 11.7547 27.4351 11.8833 27.3299 12.0118C27.2364 12.1287 27.1254 12.228 26.9969 12.3098C26.8801 12.3799 26.7574 12.4266 26.6288 12.45C26.5003 12.4734 26.3951 12.45 26.3133 12.3799C26.068 12.1929 25.9394 11.9943 25.9277 11.784C25.916 11.5619 25.9686 11.3575 26.0855 11.1705C26.2023 10.9719 26.3484 10.8083 26.5237 10.6797C26.6989 10.5395 26.8508 10.4577 26.9794 10.4344C27.1079 10.411 27.2131 10.4402 27.2949 10.522C27.3883 10.5921 27.4585 10.6914 27.5052 10.82C27.5519 10.9368 27.5753 11.0712 27.5753 11.2231C27.587 11.375 27.5753 11.5094 27.5402 11.6262ZM25.1215 15.3595C25.1799 15.2894 25.2909 15.231 25.4545 15.1843C25.6181 15.1375 25.7875 15.1025 25.9628 15.0791C26.1381 15.044 26.2958 15.0265 26.436 15.0265C26.5879 15.0148 26.6756 15.0148 26.6989 15.0265C26.7106 15.0382 26.6814 15.1609 26.6113 15.3946C26.5412 15.6283 26.4536 15.9029 26.3484 16.2184C26.2432 16.5339 26.1322 16.861 26.0154 17.1999C25.8985 17.5271 25.8109 17.7958 25.7525 18.0062C25.694 18.2165 25.6239 18.456 25.5421 18.7248C25.4603 18.9819 25.3844 19.2389 25.3143 19.496C25.2559 19.7414 25.215 19.9751 25.1916 20.1971C25.1682 20.4191 25.1857 20.5885 25.2442 20.7054C25.3026 20.8456 25.3669 20.9449 25.437 21.0033C25.5071 21.0501 25.583 21.0734 25.6648 21.0734C25.8985 21.0734 26.1906 20.9449 26.5412 20.6878C26.9034 20.4308 27.2657 20.127 27.6279 19.7764C28.0018 19.4142 28.3465 19.052 28.662 18.6897C28.9775 18.3158 29.2112 18.0178 29.3631 17.7958C29.4566 17.679 29.55 17.603 29.6435 17.568C29.7487 17.5329 29.8305 17.5388 29.8889 17.5855C29.959 17.6322 29.9941 17.7082 29.9941 17.8134C30.0058 17.9185 29.9707 18.0412 29.8889 18.1814C29.702 18.5086 29.4274 18.9001 29.0651 19.3558C28.7029 19.7998 28.3173 20.2321 27.9083 20.6528C27.4994 21.0618 27.0962 21.4123 26.6989 21.7044C26.3133 21.9966 25.9978 22.1485 25.7525 22.1601C25.5538 22.1718 25.3552 22.1368 25.1565 22.055C24.9696 21.9849 24.7943 21.8855 24.6307 21.757C24.4788 21.6168 24.3503 21.459 24.2451 21.2838C24.1399 21.0968 24.0815 20.904 24.0698 20.7054C24.0348 20.4133 24.0348 20.016 24.0698 19.5135C24.1049 18.9994 24.1692 18.4794 24.2626 17.9536C24.3561 17.4161 24.473 16.9078 24.6132 16.4287C24.7651 15.9496 24.9345 15.5932 25.1215 15.3595ZM33.815 22.388C33.5463 22.388 33.3126 22.3354 33.1139 22.2303C32.927 22.1368 32.7751 22.0082 32.6582 21.8446C32.5414 21.6811 32.4654 21.4941 32.4304 21.2838C32.3953 21.0618 32.407 20.8281 32.4654 20.5827C32.5005 20.4191 32.5589 20.2029 32.6407 19.9342C32.7225 19.6537 32.8043 19.3558 32.8861 19.0403C32.9796 18.7131 33.0614 18.3918 33.1315 18.0763C33.2133 17.7491 33.2658 17.457 33.2892 17.1999C33.3126 16.9312 33.3009 16.715 33.2542 16.5514C33.2074 16.3761 33.1081 16.2885 32.9562 16.2885C32.7692 16.2885 32.5764 16.3528 32.3778 16.4813C32.1791 16.5981 31.9747 16.7617 31.7643 16.9721C31.5657 17.1824 31.3612 17.4278 31.1509 17.7082C30.9522 17.977 30.7536 18.2574 30.5549 18.5495C30.4498 18.9468 30.3621 19.2973 30.292 19.6012C30.2219 19.8933 30.1577 20.162 30.0992 20.4074C30.0525 20.6411 30.0058 20.8514 29.959 21.0384C29.9123 21.2137 29.8714 21.3831 29.8363 21.5467C29.8013 21.6635 29.6961 21.7804 29.5208 21.8972C29.3456 22.0024 29.1586 22.09 28.96 22.1601C28.7613 22.2303 28.5919 22.2653 28.4517 22.2653C28.2998 22.2653 28.2355 22.2127 28.2589 22.1076C28.2706 22.0375 28.3115 21.8797 28.3816 21.6343C28.44 21.3889 28.5159 21.1027 28.6094 20.7755C28.6912 20.4366 28.7788 20.0802 28.8723 19.7063C28.9658 19.3324 29.0534 18.976 29.1352 18.6371C29.1937 18.3684 29.2579 18.0704 29.328 17.7433C29.3865 17.4628 29.4566 17.1356 29.5384 16.7617C29.6318 16.3878 29.737 15.9788 29.8539 15.5348C29.9357 15.4647 30.0174 15.4121 30.0992 15.3771C30.1927 15.3303 30.2862 15.2953 30.3797 15.2719C30.4732 15.2368 30.5725 15.2135 30.6776 15.2018C30.7711 15.2018 30.8646 15.2076 30.9581 15.2193C31.0399 15.231 31.1217 15.2544 31.2035 15.2894C31.2969 15.3128 31.3787 15.3537 31.4488 15.4121C31.4138 15.4939 31.3729 15.6108 31.3262 15.7627C31.2794 15.9029 31.2327 16.0548 31.1859 16.2184C31.1392 16.4053 31.0808 16.5981 31.0107 16.7968C31.1626 16.5864 31.332 16.3761 31.519 16.1658C31.7176 15.9438 31.9279 15.7451 32.1499 15.5699C32.3836 15.3946 32.629 15.2544 32.8861 15.1492C33.1432 15.0324 33.4061 14.9739 33.6748 14.9739C33.8968 14.9739 34.0955 15.0382 34.2707 15.1667C34.446 15.2953 34.5804 15.4764 34.6739 15.7101C34.779 15.9321 34.8375 16.2008 34.8491 16.5163C34.8725 16.8318 34.8316 17.1765 34.7265 17.5505L34.5337 18.3217C34.4752 18.567 34.3993 18.8592 34.3058 19.198C34.224 19.5252 34.1188 19.8874 33.9903 20.2847C33.9202 20.5418 33.891 20.7638 33.9027 20.9508C33.926 21.1377 34.0429 21.2312 34.2532 21.2312C34.4635 21.2312 34.7265 21.1027 35.0419 20.8456C35.3691 20.5885 35.6963 20.2789 36.0235 19.9166C36.3507 19.5544 36.6603 19.1863 36.9524 18.8124C37.2445 18.4268 37.4666 18.1172 37.6185 17.8835C37.7236 17.7316 37.823 17.6322 37.9164 17.5855C38.0099 17.5388 38.08 17.5329 38.1268 17.568C38.1852 17.603 38.2144 17.6848 38.2144 17.8134C38.2144 17.9302 38.1677 18.0821 38.0742 18.2691C37.9924 18.4327 37.8638 18.6488 37.6886 18.9176C37.525 19.1863 37.3263 19.4726 37.0926 19.7764C36.8589 20.0802 36.6077 20.3899 36.339 20.7054C36.0702 21.0092 35.7898 21.2896 35.4977 21.5467C35.2055 21.7921 34.9134 21.9907 34.6213 22.1426C34.3409 22.3062 34.0721 22.388 33.815 22.388ZM42.0354 18.8299C41.7315 19.274 41.4161 19.7063 41.0889 20.127C40.7734 20.5476 40.4637 20.9274 40.1599 21.2662C39.8678 21.5934 39.5932 21.8563 39.3361 22.055C39.0908 22.2653 38.8921 22.3705 38.7402 22.3705C38.378 22.3705 38.08 22.201 37.8463 21.8622C37.6243 21.5116 37.449 21.0851 37.3205 20.5827C37.2037 20.0685 37.1277 19.5252 37.0926 18.9526C37.0693 18.3684 37.0751 17.8484 37.1102 17.3927C37.1569 16.937 37.2095 16.5748 37.2679 16.306C37.3263 16.0256 37.3965 15.8094 37.4782 15.6575C37.5717 15.5056 37.6769 15.3946 37.7937 15.3245C37.9223 15.2544 38.08 15.1959 38.267 15.1492C38.3488 15.1258 38.4423 15.1083 38.5474 15.0966C38.6526 15.0849 38.7461 15.0908 38.8279 15.1142C38.9213 15.1258 38.9914 15.1609 39.0382 15.2193C39.0849 15.2777 39.0908 15.3654 39.0557 15.4822C39.0323 15.5874 38.9914 15.7451 38.933 15.9555C38.8863 16.1541 38.8337 16.382 38.7753 16.639C38.7168 16.8961 38.6584 17.1649 38.6 17.4453C38.5533 17.7257 38.5182 17.9945 38.4948 18.2515C38.4598 18.6956 38.4598 19.087 38.4948 19.4259C38.5299 19.7531 38.5825 20.0335 38.6526 20.2672C38.7227 20.4892 38.7986 20.6586 38.8804 20.7755C38.9622 20.8923 39.0265 20.9508 39.0732 20.9508C39.1317 20.9508 39.2368 20.8748 39.3887 20.7229C39.5523 20.5593 39.7334 20.349 39.9321 20.0919C40.1424 19.8348 40.3586 19.5369 40.5806 19.198C40.8143 18.8592 41.0305 18.5086 41.2291 18.1464C41.159 17.9594 41.1298 17.7374 41.1415 17.4803C41.1765 17.0831 41.2642 16.7267 41.4044 16.4112C41.5446 16.084 41.7023 15.8094 41.8776 15.5874C42.0646 15.3654 42.2515 15.1959 42.4385 15.0791C42.6371 14.9506 42.8124 14.8863 42.9643 14.8863C43.2681 14.8863 43.4551 14.9681 43.5252 15.1317C43.607 15.2836 43.6362 15.4413 43.6128 15.6049C43.5894 15.8503 43.4784 16.1892 43.2798 16.6215C43.0928 17.0422 42.8475 17.5037 42.5436 18.0062C42.6021 18.0295 42.6663 18.0529 42.7364 18.0763C42.8066 18.0996 42.8884 18.1113 42.9818 18.1113C43.3791 18.1113 43.7355 18.0646 44.051 17.9711C44.3782 17.8776 44.6586 17.7666 44.8923 17.6381C45.1377 17.5096 45.3422 17.3752 45.5058 17.235C45.681 17.0831 45.8213 16.9604 45.9264 16.8669C45.9965 16.7968 46.0666 16.7617 46.1368 16.7617C46.2069 16.7617 46.2653 16.7793 46.312 16.8143C46.3588 16.8494 46.3821 16.9019 46.3821 16.9721C46.3821 17.0422 46.3471 17.1181 46.277 17.1999C45.8563 17.714 45.3422 18.1289 44.7346 18.4443C44.1386 18.7598 43.4375 18.9176 42.6313 18.9176C42.5612 18.9176 42.4735 18.9117 42.3684 18.9001C42.2632 18.8884 42.1522 18.865 42.0354 18.8299ZM48.4328 11.6262C48.3978 11.7547 48.3277 11.8833 48.2225 12.0118C48.129 12.1287 48.018 12.228 47.8895 12.3098C47.7726 12.3799 47.6499 12.4266 47.5214 12.45C47.3929 12.4734 47.2877 12.45 47.2059 12.3799C46.9605 12.1929 46.832 11.9943 46.8203 11.784C46.8086 11.5619 46.8612 11.3575 46.9781 11.1705C47.0949 10.9719 47.241 10.8083 47.4162 10.6797C47.5915 10.5395 47.7434 10.4577 47.872 10.4344C48.0005 10.411 48.1057 10.4402 48.1874 10.522C48.2809 10.5921 48.351 10.6914 48.3978 10.82C48.4445 10.9368 48.4679 11.0712 48.4679 11.2231C48.4796 11.375 48.4679 11.5094 48.4328 11.6262ZM46.0141 15.3595C46.0725 15.2894 46.1835 15.231 46.3471 15.1843C46.5107 15.1375 46.6801 15.1025 46.8554 15.0791C47.0306 15.044 47.1884 15.0265 47.3286 15.0265C47.4805 15.0148 47.5681 15.0148 47.5915 15.0265C47.6032 15.0382 47.574 15.1609 47.5039 15.3946C47.4338 15.6283 47.3461 15.9029 47.241 16.2184C47.1358 16.5339 47.0248 16.861 46.908 17.1999C46.7911 17.5271 46.7035 17.7958 46.645 18.0062C46.5866 18.2165 46.5165 18.456 46.4347 18.7248C46.3529 18.9819 46.277 19.2389 46.2069 19.496C46.1484 19.7414 46.1075 19.9751 46.0842 20.1971C46.0608 20.4191 46.0783 20.5885 46.1367 20.7054C46.1952 20.8456 46.2594 20.9449 46.3295 21.0033C46.3997 21.0501 46.4756 21.0734 46.5574 21.0734C46.7911 21.0734 47.0832 20.9449 47.4338 20.6878C47.796 20.4308 48.1582 20.127 48.5205 19.7764C48.8944 19.4142 49.2391 19.052 49.5546 18.6897C49.8701 18.3158 50.1038 18.0178 50.2557 17.7958C50.3492 17.679 50.4426 17.603 50.5361 17.568C50.6413 17.5329 50.7231 17.5388 50.7815 17.5855C50.8516 17.6322 50.8867 17.7082 50.8867 17.8134C50.8983 17.9185 50.8633 18.0412 50.7815 18.1814C50.5945 18.5086 50.3199 18.9001 49.9577 19.3558C49.5955 19.7998 49.2099 20.2321 48.8009 20.6528C48.3919 21.0618 47.9888 21.4123 47.5915 21.7044C47.2059 21.9966 46.8904 22.1485 46.645 22.1601C46.4464 22.1718 46.2478 22.1368 46.0491 22.055C45.8622 21.9849 45.6869 21.8855 45.5233 21.757C45.3714 21.6168 45.2429 21.459 45.1377 21.2838C45.0325 21.0968 44.9741 20.904 44.9624 20.7054C44.9274 20.4133 44.9274 20.016 44.9624 19.5135C44.9975 18.9994 45.0617 18.4794 45.1552 17.9536C45.2487 17.4161 45.3655 16.9078 45.5058 16.4287C45.6577 15.9496 45.8271 15.5932 46.0141 15.3595ZM55.9696 17.5154C56.0163 17.4453 56.0747 17.4044 56.1449 17.3927C56.2267 17.3693 56.2909 17.3752 56.3377 17.4102C56.3844 17.4453 56.4078 17.5037 56.4078 17.5855C56.4195 17.6673 56.3902 17.7783 56.3201 17.9185C56.0864 18.3626 55.7768 18.8416 55.3912 19.3558C55.0173 19.8699 54.62 20.3548 54.1993 20.8105C53.7787 21.2546 53.3697 21.6226 52.9724 21.9148C52.5751 22.2069 52.2421 22.3529 51.9734 22.3529C51.5878 22.3529 51.2664 22.277 51.0093 22.1251C50.7523 21.9732 50.5478 21.7862 50.3959 21.5642C50.2557 21.3422 50.1564 21.1027 50.0979 20.8456C50.0395 20.5768 50.022 20.3315 50.0453 20.1094C50.057 19.9225 50.0979 19.5895 50.168 19.1104C50.2381 18.6196 50.3316 18.0587 50.4485 17.4278C50.5653 16.7851 50.6939 16.1015 50.8341 15.3771C50.986 14.6409 51.1437 13.934 51.3073 13.2563C51.1087 13.2796 50.91 13.303 50.7114 13.3264C50.5127 13.3497 50.3316 13.3614 50.168 13.3614C49.7941 13.3614 49.4436 13.3205 49.1164 13.2387C48.7775 13.1452 48.5263 13.0576 48.3627 12.9758C48.2692 12.9291 48.2283 12.8648 48.24 12.783C48.2517 12.6895 48.2868 12.6019 48.3452 12.5201C48.4036 12.4266 48.4796 12.3507 48.5731 12.2923C48.6548 12.2221 48.7308 12.1871 48.8009 12.1871C49.0229 12.2105 49.2625 12.2338 49.5195 12.2572C49.7766 12.2689 50.057 12.2689 50.3608 12.2572C50.5829 12.2455 50.7932 12.228 50.9918 12.2046C51.2022 12.1812 51.4066 12.152 51.6053 12.117C51.7572 11.5561 51.9032 11.0712 52.0435 10.6622C52.1954 10.2416 52.3297 9.94943 52.4466 9.78584C52.4816 9.72742 52.5576 9.68068 52.6744 9.64563C52.803 9.59889 52.9374 9.56967 53.0776 9.55799C53.2178 9.53462 53.3522 9.53462 53.4807 9.55799C53.6092 9.56967 53.7027 9.61057 53.7611 9.68068C53.8196 9.77416 53.8429 10.0137 53.8313 10.3993C53.8196 10.7849 53.7553 11.2757 53.6384 11.8716C54.1292 11.8716 54.5616 11.9008 54.9355 11.9592C55.3211 12.006 55.6483 12.0644 55.917 12.1345C56.1858 12.1929 56.4019 12.2572 56.5655 12.3273C56.7291 12.3857 56.8518 12.4266 56.9336 12.45C57.0154 12.4734 57.0563 12.5318 57.0563 12.6253C57.068 12.7188 57.0504 12.8181 57.0037 12.9232C56.9686 13.0167 56.9044 13.0985 56.8109 13.1686C56.7174 13.2387 56.6123 13.2621 56.4954 13.2387C56.3786 13.227 56.2442 13.2037 56.0923 13.1686C55.9521 13.1336 55.7768 13.1044 55.5665 13.081C55.3678 13.0576 55.1283 13.0342 54.8478 13.0109C54.5674 12.9875 54.2402 12.9758 53.8663 12.9758C53.7962 12.9758 53.7144 12.9817 53.6209 12.9933C53.5391 12.9933 53.4515 12.9933 53.358 12.9933C53.3113 13.1803 53.2645 13.3673 53.2178 13.5542C53.1827 13.7295 53.1302 13.9165 53.06 14.1151C52.9081 14.5825 52.7329 15.0908 52.5342 15.64C52.359 16.1191 52.1486 16.6682 51.9032 17.2875C51.6579 17.9068 51.3833 18.567 51.0795 19.2681C51.0093 19.7706 51.0152 20.1562 51.097 20.4249C51.1905 20.682 51.3015 20.869 51.43 20.9858C51.5819 21.1143 51.7689 21.1845 51.9909 21.1961C52.1662 21.2195 52.3765 21.1611 52.6219 21.0209C52.8789 20.869 53.1418 20.6703 53.4106 20.4249C53.6793 20.1796 53.9481 19.9108 54.2169 19.6187C54.4973 19.3266 54.7544 19.0403 54.9881 18.7598C55.2218 18.4794 55.4262 18.2282 55.6015 18.0062C55.7768 17.7725 55.8995 17.6089 55.9696 17.5154ZM63.9095 18.4619C63.7459 18.6956 63.5356 18.9877 63.2785 19.3382C63.0214 19.6771 62.7527 20.0218 62.4722 20.3724C62.2035 20.7112 61.9347 21.0267 61.666 21.3188C61.4089 21.5993 61.1927 21.7979 61.0175 21.9148C60.9006 21.9849 60.7662 22.0433 60.6143 22.09C60.4624 22.1368 60.3047 22.166 60.1411 22.1777C59.9892 22.1894 59.8431 22.1777 59.7029 22.1426C59.5627 22.1192 59.44 22.0725 59.3348 22.0024C59.2297 21.9206 59.142 21.8038 59.0719 21.6518C59.0135 21.5233 58.9551 21.3539 58.8967 21.1436C58.8499 20.9332 58.8324 20.6703 58.8441 20.3548C58.5636 20.8222 58.254 21.1845 57.9151 21.4415C57.5763 21.6869 57.2549 21.868 56.9511 21.9849C56.6006 22.1134 56.25 22.1894 55.8995 22.2127C55.7359 22.2127 55.5606 22.1543 55.3737 22.0375C55.1867 21.9323 55.029 21.7629 54.9004 21.5292C54.7719 21.2838 54.6901 20.9741 54.655 20.6002C54.62 20.2146 54.6667 19.7589 54.7953 19.2331C54.9588 18.5203 55.2159 17.8718 55.5665 17.2875C55.9287 16.7033 56.3201 16.2067 56.7408 15.7977C57.1614 15.3771 57.5763 15.0616 57.9852 14.8512C58.3942 14.6409 58.7331 14.5474 59.0018 14.5708C59.3173 14.6292 59.5744 14.7227 59.773 14.8512C59.9366 14.9681 60.0418 15.1434 60.0885 15.3771C60.1469 15.5991 60.0535 15.897 59.8081 16.271C59.9717 16.2359 60.106 16.2125 60.2112 16.2008C60.328 16.1892 60.4157 16.1833 60.4741 16.1833C60.5442 16.1833 60.591 16.1892 60.6143 16.2008C60.626 16.2242 60.6319 16.2768 60.6319 16.3586C60.6319 16.4287 60.6143 16.5631 60.5793 16.7617C60.5442 16.9604 60.4916 17.2291 60.4215 17.568C60.3514 17.9068 60.2579 18.345 60.1411 18.8825C60.1177 18.9877 60.0944 19.087 60.071 19.1805C60.0593 19.2623 60.0418 19.3499 60.0184 19.4434C60.0067 19.5252 59.9892 19.6245 59.9658 19.7414C59.9424 19.8582 59.9132 20.0043 59.8782 20.1796C59.8665 20.2847 59.8607 20.4016 59.8607 20.5301C59.8723 20.6469 59.8957 20.758 59.9308 20.8631C59.9658 20.9683 60.0184 21.0559 60.0885 21.126C60.1703 21.1845 60.2813 21.2137 60.4215 21.2137C60.5384 21.2137 60.6903 21.1436 60.8772 21.0033C61.0642 20.8514 61.2628 20.6645 61.4732 20.4425C61.6835 20.2088 61.8997 19.9575 62.1217 19.6888C62.3554 19.4084 62.5715 19.1396 62.7702 18.8825C62.9688 18.6255 63.1441 18.3976 63.296 18.199C63.4596 18.0003 63.5764 17.8543 63.6466 17.7608C63.74 17.6556 63.8335 17.5972 63.927 17.5855C64.0205 17.5621 64.0906 17.5855 64.1373 17.6556C64.1841 17.7257 64.1899 17.8309 64.1549 17.9711C64.1315 18.1113 64.0497 18.2749 63.9095 18.4619ZM58.774 19.2331C58.8324 18.9994 58.9025 18.7248 58.9843 18.4093C59.0661 18.0938 59.1362 17.79 59.1946 17.4979C59.253 17.2057 59.2939 16.9662 59.3173 16.7793C59.3524 16.5806 59.3465 16.4871 59.2998 16.4988C59.2414 16.5105 59.1771 16.528 59.107 16.5514C59.0486 16.5748 58.9726 16.5923 58.8791 16.604C58.7856 16.6157 58.6922 16.6332 58.5987 16.6566C58.6922 16.4696 58.7447 16.3177 58.7564 16.2008C58.7798 16.0723 58.7856 15.973 58.774 15.9029C58.7623 15.8211 58.7389 15.7568 58.7039 15.7101C58.5753 15.6049 58.3475 15.6926 58.0203 15.973C57.7048 16.2417 57.3367 16.7442 56.9161 17.4803C56.7408 17.7842 56.6006 18.1113 56.4954 18.4619C56.3902 18.8007 56.3143 19.1221 56.2676 19.4259C56.2325 19.7297 56.2267 19.9984 56.25 20.2321C56.2734 20.4541 56.3201 20.6002 56.3902 20.6703C56.5188 20.7989 56.6648 20.8631 56.8284 20.8631C56.992 20.8514 57.1556 20.8047 57.3192 20.7229C57.4945 20.6294 57.6639 20.5126 57.8275 20.3724C58.0028 20.2321 58.1547 20.0861 58.2832 19.9342C58.4234 19.7823 58.5344 19.642 58.6162 19.5135C58.7097 19.385 58.7623 19.2915 58.774 19.2331ZM69.2027 17.5154C69.2495 17.4453 69.3079 17.4044 69.378 17.3927C69.4598 17.3693 69.5241 17.3752 69.5708 17.4102C69.6175 17.4453 69.6409 17.5037 69.6409 17.5855C69.6526 17.6673 69.6234 17.7783 69.5533 17.9185C69.3196 18.3626 69.0099 18.8416 68.6243 19.3558C68.2504 19.8699 67.8531 20.3548 67.4325 20.8105C67.0118 21.2546 66.6028 21.6226 66.2055 21.9148C65.8083 22.2069 65.4752 22.3529 65.2065 22.3529C64.8209 22.3529 64.4996 22.277 64.2425 22.1251C63.9854 21.9732 63.7809 21.7862 63.629 21.5642C63.4888 21.3422 63.3895 21.1027 63.3311 20.8456C63.2726 20.5768 63.2551 20.3315 63.2785 20.1094C63.2902 19.9225 63.3311 19.5895 63.4012 19.1104C63.4713 18.6196 63.5648 18.0587 63.6816 17.4278C63.7985 16.7851 63.927 16.1015 64.0672 15.3771C64.2191 14.6409 64.3769 13.934 64.5404 13.2563C64.3418 13.2796 64.1432 13.303 63.9445 13.3264C63.7459 13.3497 63.5648 13.3614 63.4012 13.3614C63.0273 13.3614 62.6767 13.3205 62.3495 13.2387C62.0107 13.1452 61.7594 13.0576 61.5959 12.9758C61.5024 12.9291 61.4615 12.8648 61.4732 12.783C61.4849 12.6895 61.5199 12.6019 61.5783 12.5201C61.6368 12.4266 61.7127 12.3507 61.8062 12.2923C61.888 12.2221 61.9639 12.1871 62.034 12.1871C62.2561 12.2105 62.4956 12.2338 62.7527 12.2572C63.0097 12.2689 63.2902 12.2689 63.594 12.2572C63.816 12.2455 64.0263 12.228 64.225 12.2046C64.4353 12.1812 64.6398 12.152 64.8384 12.117C64.9903 11.5561 65.1364 11.0712 65.2766 10.6622C65.4285 10.2416 65.5629 9.94943 65.6797 9.78584C65.7148 9.72742 65.7907 9.68068 65.9076 9.64563C66.0361 9.59889 66.1705 9.56967 66.3107 9.55799C66.4509 9.53462 66.5853 9.53462 66.7138 9.55799C66.8424 9.56967 66.9359 9.61057 66.9943 9.68068C67.0527 9.77416 67.0761 10.0137 67.0644 10.3993C67.0527 10.7849 66.9884 11.2757 66.8716 11.8716C67.3624 11.8716 67.7947 11.9008 68.1686 11.9592C68.5542 12.006 68.8814 12.0644 69.1501 12.1345C69.4189 12.1929 69.6351 12.2572 69.7986 12.3273C69.9622 12.3857 70.0849 12.4266 70.1667 12.45C70.2485 12.4734 70.2894 12.5318 70.2894 12.6253C70.3011 12.7188 70.2836 12.8181 70.2368 12.9232C70.2018 13.0167 70.1375 13.0985 70.044 13.1686C69.9506 13.2387 69.8454 13.2621 69.7285 13.2387C69.6117 13.227 69.4773 13.2037 69.3254 13.1686C69.1852 13.1336 69.0099 13.1044 68.7996 13.081C68.6009 13.0576 68.3614 13.0342 68.081 13.0109C67.8005 12.9875 67.4734 12.9758 67.0994 12.9758C67.0293 12.9758 66.9475 12.9817 66.8541 12.9933C66.7723 12.9933 66.6846 12.9933 66.5911 12.9933C66.5444 13.1803 66.4977 13.3673 66.4509 13.5542C66.4159 13.7295 66.3633 13.9165 66.2932 14.1151C66.1413 14.5825 65.966 15.0908 65.7674 15.64C65.5921 16.1191 65.3818 16.6682 65.1364 17.2875C64.891 17.9068 64.6164 18.567 64.3126 19.2681C64.2425 19.7706 64.2483 20.1562 64.3301 20.4249C64.4236 20.682 64.5346 20.869 64.6631 20.9858C64.815 21.1143 65.002 21.1845 65.224 21.1961C65.3993 21.2195 65.6096 21.1611 65.855 21.0209C66.1121 20.869 66.375 20.6703 66.6437 20.4249C66.9125 20.1796 67.1812 19.9108 67.45 19.6187C67.7304 19.3266 67.9875 19.0403 68.2212 18.7598C68.4549 18.4794 68.6594 18.2282 68.8346 18.0062C69.0099 17.7725 69.1326 17.6089 69.2027 17.5154ZM72.0071 11.6262C71.972 11.7547 71.9019 11.8833 71.7968 12.0118C71.7033 12.1287 71.5923 12.228 71.4637 12.3098C71.3469 12.3799 71.2242 12.4266 71.0957 12.45C70.9671 12.4734 70.862 12.45 70.7802 12.3799C70.5348 12.1929 70.4063 11.9943 70.3946 11.784C70.3829 11.5619 70.4355 11.3575 70.5523 11.1705C70.6692 10.9719 70.8152 10.8083 70.9905 10.6797C71.1658 10.5395 71.3177 10.4577 71.4462 10.4344C71.5748 10.411 71.6799 10.4402 71.7617 10.522C71.8552 10.5921 71.9253 10.6914 71.972 10.82C72.0188 10.9368 72.0421 11.0712 72.0421 11.2231C72.0538 11.375 72.0421 11.5094 72.0071 11.6262ZM69.5883 15.3595C69.6467 15.2894 69.7578 15.231 69.9213 15.1843C70.0849 15.1375 70.2544 15.1025 70.4296 15.0791C70.6049 15.044 70.7627 15.0265 70.9029 15.0265C71.0548 15.0148 71.1424 15.0148 71.1658 15.0265C71.1775 15.0382 71.1483 15.1609 71.0781 15.3946C71.008 15.6283 70.9204 15.9029 70.8152 16.2184C70.7101 16.5339 70.5991 16.861 70.4822 17.1999C70.3654 17.5271 70.2777 17.7958 70.2193 18.0062C70.1609 18.2165 70.0908 18.456 70.009 18.7248C69.9272 18.9819 69.8512 19.2389 69.7811 19.496C69.7227 19.7414 69.6818 19.9751 69.6584 20.1971C69.6351 20.4191 69.6526 20.5885 69.711 20.7054C69.7694 20.8456 69.8337 20.9449 69.9038 21.0033C69.9739 21.0501 70.0499 21.0734 70.1317 21.0734C70.3654 21.0734 70.6575 20.9449 71.008 20.6878C71.3703 20.4308 71.7325 20.127 72.0947 19.7764C72.4686 19.4142 72.8134 19.052 73.1288 18.6897C73.4443 18.3158 73.678 18.0178 73.8299 17.7958C73.9234 17.679 74.0169 17.603 74.1104 17.568C74.2155 17.5329 74.2973 17.5388 74.3558 17.5855C74.4259 17.6322 74.4609 17.7082 74.4609 17.8134C74.4726 17.9185 74.4376 18.0412 74.3558 18.1814C74.1688 18.5086 73.8942 18.9001 73.532 19.3558C73.1697 19.7998 72.7841 20.2321 72.3752 20.6528C71.9662 21.0618 71.5631 21.4123 71.1658 21.7044C70.7802 21.9966 70.4647 22.1485 70.2193 22.1601C70.0207 22.1718 69.822 22.1368 69.6234 22.055C69.4364 21.9849 69.2611 21.8855 69.0976 21.757C68.9457 21.6168 68.8171 21.459 68.712 21.2838C68.6068 21.0968 68.5484 20.904 68.5367 20.7054C68.5016 20.4133 68.5016 20.016 68.5367 19.5135C68.5717 18.9994 68.636 18.4794 68.7295 17.9536C68.823 17.4161 68.9398 16.9078 69.08 16.4287C69.2319 15.9496 69.4014 15.5932 69.5883 15.3595ZM81.0161 18.3041C80.6656 18.8183 80.2683 19.3207 79.8243 19.8115C79.3803 20.2906 78.907 20.7229 78.4046 21.1085C77.9138 21.4824 77.4055 21.7862 76.8797 22.0199C76.3656 22.2536 75.8631 22.3705 75.3723 22.3705C75.1153 22.3705 74.8348 22.3062 74.531 22.1777C74.2389 22.0608 73.9702 21.8739 73.7248 21.6168C73.4794 21.3597 73.2807 21.0267 73.1288 20.6177C72.9886 20.2088 72.9477 19.7122 73.0062 19.1279C73.0529 18.6488 73.199 18.1464 73.4443 17.6206C73.7014 17.0831 74.0111 16.5923 74.3733 16.1483C74.7472 15.7042 75.162 15.3362 75.6177 15.044C76.0851 14.7519 76.5525 14.6059 77.0199 14.6059C77.4639 14.6059 77.7853 14.7169 77.9839 14.9389C78.1826 15.1609 78.2702 15.4355 78.2468 15.7627C78.2118 16.1249 78.1066 16.4579 77.9313 16.7617C77.7677 17.0655 77.5691 17.3401 77.3354 17.5855C77.1017 17.8309 76.8505 18.0529 76.5817 18.2515C76.3247 18.4502 76.0793 18.6313 75.8456 18.7949C75.5885 18.9702 75.3431 19.1396 75.1094 19.3032C74.8757 19.4551 74.6713 19.5953 74.496 19.7238C74.5077 20.016 74.5602 20.2613 74.6537 20.46C74.7472 20.6586 74.8641 20.8222 75.0043 20.9508C75.1445 21.0676 75.3022 21.1552 75.4775 21.2137C75.6645 21.2604 75.8514 21.2838 76.0384 21.2838C76.4357 21.2838 76.8505 21.1611 77.2828 20.9157C77.7152 20.6586 78.1358 20.3548 78.5448 20.0043C78.9654 19.642 79.351 19.2681 79.7016 18.8825C80.0638 18.4969 80.3618 18.1639 80.5955 17.8835C80.6773 17.79 80.7591 17.7374 80.8409 17.7257C80.9344 17.7024 81.0045 17.714 81.0512 17.7608C81.1096 17.7958 81.1388 17.8659 81.1388 17.9711C81.1388 18.0646 81.0979 18.1756 81.0161 18.3041ZM76.5291 15.6049C76.3889 15.6049 76.2195 15.675 76.0209 15.8152C75.8339 15.9555 75.6469 16.16 75.46 16.4287C75.273 16.6858 75.0977 17.0071 74.9342 17.3927C74.7706 17.7666 74.6479 18.199 74.5661 18.6897C74.7063 18.5846 74.8582 18.4794 75.0218 18.3742C75.1854 18.2574 75.349 18.1347 75.5126 18.0062C76.015 17.6206 76.3656 17.2817 76.5642 16.9896C76.7628 16.6975 76.8739 16.4462 76.8972 16.2359C76.9206 16.0139 76.8972 15.8561 76.8271 15.7627C76.757 15.6575 76.6577 15.6049 76.5291 15.6049ZM37.3205 34.163C37.2037 34.607 37.0459 35.0218 36.8473 35.4074C36.6486 35.793 36.4091 36.126 36.1286 36.4065C35.8599 36.6869 35.5502 36.9031 35.1997 37.055C34.8608 37.2186 34.4869 37.3004 34.0779 37.3004C33.5989 37.3004 33.2191 37.1952 32.9387 36.9849C32.6699 36.7862 32.4654 36.535 32.3252 36.2312C32.1967 35.9274 32.1207 35.5944 32.0974 35.2321C32.0623 34.8699 32.0448 34.531 32.0448 34.2155C32.0448 33.9935 32.074 33.7482 32.1324 33.4794C32.1791 33.2106 32.2493 32.9361 32.3427 32.6556C32.4362 32.3752 32.5531 32.0947 32.6933 31.8143C32.8452 31.5339 33.0205 31.2768 33.2191 31.0431C33.2892 30.8445 33.3944 30.6692 33.5346 30.5173C33.6865 30.3654 33.8559 30.2427 34.0429 30.1492C34.2415 30.044 34.4519 29.9681 34.6739 29.9214C34.8959 29.8629 35.1121 29.8337 35.3224 29.8337C35.3574 29.8337 35.3867 29.8396 35.41 29.8512C35.4451 29.8629 35.4801 29.8746 35.5152 29.8863C35.6671 29.898 35.854 29.9564 36.0761 30.0616C36.3098 30.1667 36.5318 30.3245 36.7421 30.5348C36.9641 30.7451 37.1511 31.0139 37.303 31.3411C37.4549 31.6566 37.5308 32.0422 37.5308 32.4979C37.5308 32.5914 37.525 32.7082 37.5133 32.8484C37.5016 32.977 37.4899 33.088 37.4782 33.1814C37.747 33.0763 38.0274 32.9477 38.3196 32.7958C38.6117 32.6439 38.8921 32.4862 39.1609 32.3226C39.4413 32.1473 39.6984 31.9721 39.9321 31.7968C40.1658 31.6215 40.3527 31.4638 40.4929 31.3235C40.6098 31.2184 40.7091 31.16 40.7909 31.1483C40.8727 31.1366 40.9311 31.16 40.9662 31.2184C41.0012 31.2768 41.0071 31.3586 40.9837 31.4638C40.9603 31.5689 40.8961 31.6858 40.7909 31.8143C40.7325 31.8844 40.5806 32.0246 40.3352 32.235C40.1015 32.4453 39.8211 32.6731 39.4939 32.9185C39.1667 33.1639 38.8103 33.4034 38.4247 33.6371C38.0391 33.8708 37.671 34.0461 37.3205 34.163ZM34.3584 31.4988C34.3233 31.604 34.3058 31.715 34.3058 31.8318C34.3058 32.0188 34.3175 32.2174 34.3409 32.4278C34.3642 32.6264 34.4226 32.8075 34.5161 32.9711C34.6096 33.1347 34.7557 33.2749 34.9543 33.3918C35.1646 33.4969 35.4509 33.5495 35.8132 33.5495C35.8716 33.5495 35.93 33.5495 35.9884 33.5495C36.0468 33.5378 36.1053 33.5261 36.1637 33.5145C36.1988 33.3626 36.228 33.2282 36.2513 33.1113C36.2864 32.9828 36.3039 32.8718 36.3039 32.7783C36.3273 32.5563 36.3273 32.3284 36.3039 32.0947C36.2805 31.861 36.2338 31.6507 36.1637 31.4638C36.1053 31.2651 36.0235 31.1074 35.9183 30.9905C35.8248 30.862 35.708 30.7977 35.5678 30.7977C35.3458 30.7977 35.1296 30.862 34.9193 30.9905C34.7206 31.1074 34.5337 31.2768 34.3584 31.4988ZM33.2366 34.5836C33.2366 34.794 33.2483 35.0043 33.2717 35.2146C33.2951 35.4133 33.3418 35.5944 33.4119 35.758C33.482 35.9099 33.5755 36.0384 33.6923 36.1436C33.8092 36.237 33.9611 36.2838 34.1481 36.2838C34.3584 36.2838 34.5512 36.237 34.7265 36.1436C34.9017 36.0384 35.0595 35.9099 35.1997 35.758C35.3399 35.5944 35.4626 35.4133 35.5678 35.2146C35.6846 35.0043 35.7839 34.7881 35.8657 34.5661C35.7839 34.5778 35.7021 34.5895 35.6203 34.6012C35.5502 34.6012 35.4684 34.6012 35.375 34.6012C34.9309 34.6012 34.5453 34.4726 34.2182 34.2155C33.9027 33.9468 33.6573 33.6079 33.482 33.199C33.4119 33.4443 33.3535 33.6839 33.3067 33.9176C33.26 34.1513 33.2366 34.3733 33.2366 34.5836ZM44.4015 37.388C44.1328 37.388 43.8991 37.3354 43.7005 37.2303C43.5135 37.1368 43.3616 37.0082 43.2447 36.8446C43.1279 36.6811 43.0519 36.4941 43.0169 36.2838C42.9818 36.0618 42.9935 35.8281 43.0519 35.5827C43.087 35.4191 43.1454 35.2029 43.2272 34.9342C43.309 34.6537 43.3908 34.3558 43.4726 34.0403C43.5661 33.7131 43.6479 33.3918 43.718 33.0763C43.7998 32.7491 43.8524 32.457 43.8757 32.1999C43.8991 31.9312 43.8874 31.715 43.8407 31.5514C43.7939 31.3761 43.6946 31.2885 43.5427 31.2885C43.3557 31.2885 43.1629 31.3528 42.9643 31.4813C42.7657 31.5981 42.5612 31.7617 42.3508 31.9721C42.1522 32.1824 41.9477 32.4278 41.7374 32.7082C41.5387 32.977 41.3401 33.2574 41.1415 33.5495C41.0363 33.9468 40.9487 34.2973 40.8786 34.6012C40.8084 34.8933 40.7442 35.162 40.6858 35.4074C40.639 35.6411 40.5923 35.8514 40.5455 36.0384C40.4988 36.2137 40.4579 36.3831 40.4228 36.5467C40.3878 36.6635 40.2826 36.7804 40.1073 36.8972C39.9321 37.0024 39.7451 37.09 39.5465 37.1601C39.3478 37.2303 39.1784 37.2653 39.0382 37.2653C38.8863 37.2653 38.822 37.2127 38.8454 37.1076C38.8571 37.0375 38.898 36.8797 38.9681 36.6343C39.0265 36.3889 39.1024 36.1027 39.1959 35.7755C39.2777 35.4366 39.3654 35.0802 39.4588 34.7063C39.5523 34.3324 39.64 33.976 39.7217 33.6371C39.7802 33.3684 39.8444 33.0704 39.9145 32.7433C39.973 32.4628 40.0431 32.1356 40.1249 31.7617C40.2184 31.3878 40.3235 30.9788 40.4404 30.5348C40.5222 30.4647 40.604 30.4121 40.6858 30.3771C40.7792 30.3303 40.8727 30.2953 40.9662 30.2719C41.0597 30.2368 41.159 30.2135 41.2642 30.2018C41.3576 30.2018 41.4511 30.2076 41.5446 30.2193C41.6264 30.231 41.7082 30.2544 41.79 30.2894C41.8835 30.3128 41.9652 30.3537 42.0354 30.4121C42.0003 30.4939 41.9594 30.6108 41.9127 30.7627C41.8659 30.9029 41.8192 31.0548 41.7724 31.2184C41.7257 31.4053 41.6673 31.5981 41.5972 31.7968C41.7491 31.5864 41.9185 31.3761 42.1055 31.1658C42.3041 30.9438 42.5144 30.7451 42.7364 30.5699C42.9701 30.3946 43.2155 30.2544 43.4726 30.1492C43.7297 30.0324 43.9926 29.9739 44.2613 29.9739C44.4833 29.9739 44.682 30.0382 44.8573 30.1667C45.0325 30.2953 45.1669 30.4764 45.2604 30.7101C45.3655 30.9321 45.424 31.2008 45.4357 31.5163C45.459 31.8318 45.4181 32.1765 45.313 32.5505L45.1202 33.3217C45.0617 33.567 44.9858 33.8592 44.8923 34.198C44.8105 34.5252 44.7054 34.8874 44.5768 35.2847C44.5067 35.5418 44.4775 35.7638 44.4892 35.9508C44.5126 36.1377 44.6294 36.2312 44.8397 36.2312C45.0501 36.2312 45.313 36.1027 45.6285 35.8456C45.9556 35.5885 46.2828 35.2789 46.61 34.9166C46.9372 34.5544 47.2468 34.1863 47.5389 33.8124C47.8311 33.4268 48.0531 33.1172 48.205 32.8835C48.3101 32.7316 48.4095 32.6322 48.5029 32.5855C48.5964 32.5388 48.6665 32.5329 48.7133 32.568C48.7717 32.603 48.8009 32.6848 48.8009 32.8134C48.8009 32.9302 48.7542 33.0821 48.6607 33.2691C48.5789 33.4327 48.4504 33.6488 48.2751 33.9176C48.1115 34.1863 47.9129 34.4726 47.6792 34.7764C47.4455 35.0802 47.1942 35.3899 46.9255 35.7054C46.6567 36.0092 46.3763 36.2896 46.0842 36.5467C45.792 36.7921 45.4999 36.9907 45.2078 37.1426C44.9274 37.3062 44.6586 37.388 44.4015 37.388ZM47.2234 36.6694C47.7376 34.5077 48.1466 32.7725 48.4504 31.4638C48.7659 30.1551 49.0054 29.156 49.169 28.4666C49.3559 27.6486 49.4845 27.0819 49.5546 26.7664C49.5896 26.5444 49.6188 26.3282 49.6422 26.1179C49.6656 25.931 49.6773 25.7382 49.6773 25.5395C49.6773 25.3409 49.6597 25.1598 49.6247 24.9962C49.7182 24.9377 49.8175 24.891 49.9227 24.856C50.0395 24.8209 50.1505 24.7917 50.2557 24.7683C50.3842 24.7333 50.5127 24.704 50.6413 24.6807C50.7698 24.6573 50.8867 24.6456 50.9918 24.6456C51.0853 24.6456 51.1729 24.6573 51.2547 24.6807C51.3365 24.6924 51.3891 24.7274 51.4125 24.7858C51.4826 24.8443 51.5118 24.9611 51.5001 25.1364C51.5001 25.3117 51.4884 25.4928 51.4651 25.6797C51.4183 25.9018 51.3657 26.1413 51.3073 26.3984C51.1671 26.9008 50.9743 27.6253 50.7289 28.5717C50.5186 29.378 50.2323 30.4764 49.8701 31.8669C49.5195 33.2574 49.0755 35.0101 48.538 37.1251C48.4796 37.1835 48.4095 37.2244 48.3277 37.2478C48.2459 37.2711 48.1699 37.2828 48.0998 37.2828C48.018 37.2828 47.9304 37.277 47.8369 37.2653C47.7551 37.2419 47.6733 37.2069 47.5915 37.1601C47.5214 37.1134 47.4513 37.0491 47.3812 36.9673C47.3111 36.8972 47.2585 36.7979 47.2234 36.6694ZM55.2685 26.6262C55.2334 26.7547 55.1633 26.8833 55.0582 27.0118C54.9647 27.1287 54.8537 27.228 54.7251 27.3098C54.6083 27.3799 54.4856 27.4266 54.3571 27.45C54.2285 27.4734 54.1234 27.45 54.0416 27.3799C53.7962 27.1929 53.6677 26.9943 53.656 26.784C53.6443 26.5619 53.6969 26.3575 53.8137 26.1705C53.9306 25.9719 54.0766 25.8083 54.2519 25.6797C54.4272 25.5395 54.5791 25.4577 54.7076 25.4344C54.8362 25.411 54.9413 25.4402 55.0231 25.522C55.1166 25.5921 55.1867 25.6914 55.2334 25.82C55.2802 25.9368 55.3035 26.0712 55.3035 26.2231C55.3152 26.375 55.3035 26.5094 55.2685 26.6262ZM52.8497 30.3595C52.9081 30.2894 53.0191 30.231 53.1827 30.1843C53.3463 30.1375 53.5158 30.1025 53.691 30.0791C53.8663 30.044 54.0241 30.0265 54.1643 30.0265C54.3162 30.0148 54.4038 30.0148 54.4272 30.0265C54.4389 30.0382 54.4097 30.1609 54.3395 30.3946C54.2694 30.6283 54.1818 30.9029 54.0766 31.2184C53.9715 31.5339 53.8605 31.861 53.7436 32.1999C53.6268 32.5271 53.5391 32.7958 53.4807 33.0062C53.4223 33.2165 53.3522 33.456 53.2704 33.7248C53.1886 33.9819 53.1126 34.2389 53.0425 34.496C52.9841 34.7414 52.9432 34.9751 52.9198 35.1971C52.8965 35.4191 52.914 35.5885 52.9724 35.7054C53.0308 35.8456 53.0951 35.9449 53.1652 36.0033C53.2353 36.0501 53.3113 36.0734 53.3931 36.0734C53.6268 36.0734 53.9189 35.9449 54.2694 35.6878C54.6317 35.4308 54.9939 35.127 55.3561 34.7764C55.73 34.4142 56.0747 34.052 56.3902 33.6897C56.7057 33.3158 56.9394 33.0178 57.0913 32.7958C57.1848 32.679 57.2783 32.603 57.3718 32.568C57.4769 32.5329 57.5587 32.5388 57.6172 32.5855C57.6873 32.6322 57.7223 32.7082 57.7223 32.8134C57.734 32.9185 57.6989 33.0412 57.6172 33.1814C57.4302 33.5086 57.1556 33.9001 56.7934 34.3558C56.4311 34.7998 56.0455 35.2321 55.6366 35.6528C55.2276 36.0618 54.8245 36.4123 54.4272 36.7044C54.0416 36.9966 53.7261 37.1485 53.4807 37.1601C53.2821 37.1718 53.0834 37.1368 52.8848 37.055C52.6978 36.9849 52.5225 36.8855 52.359 36.757C52.207 36.6168 52.0785 36.459 51.9734 36.2838C51.8682 36.0968 51.8098 35.904 51.7981 35.7054C51.763 35.4133 51.763 35.016 51.7981 34.5135C51.8331 33.9994 51.8974 33.4794 51.9909 32.9536C52.0844 32.4161 52.2012 31.9078 52.3414 31.4287C52.4933 30.9496 52.6628 30.5932 52.8497 30.3595ZM61.5433 37.388C61.2745 37.388 61.0408 37.3354 60.8422 37.2303C60.6552 37.1368 60.5033 37.0082 60.3865 36.8446C60.2696 36.6811 60.1937 36.4941 60.1586 36.2838C60.1236 36.0618 60.1352 35.8281 60.1937 35.5827C60.2287 35.4191 60.2872 35.2029 60.3689 34.9342C60.4507 34.6537 60.5325 34.3558 60.6143 34.0403C60.7078 33.7131 60.7896 33.3918 60.8597 33.0763C60.9415 32.7491 60.9941 32.457 61.0175 32.1999C61.0408 31.9312 61.0291 31.715 60.9824 31.5514C60.9357 31.3761 60.8363 31.2885 60.6844 31.2885C60.4975 31.2885 60.3047 31.3528 60.106 31.4813C59.9074 31.5981 59.7029 31.7617 59.4926 31.9721C59.2939 32.1824 59.0894 32.4278 58.8791 32.7082C58.6805 32.977 58.4818 33.2574 58.2832 33.5495C58.178 33.9468 58.0904 34.2973 58.0203 34.6012C57.9502 34.8933 57.8859 35.162 57.8275 35.4074C57.7807 35.6411 57.734 35.8514 57.6873 36.0384C57.6405 36.2137 57.5996 36.3831 57.5646 36.5467C57.5295 36.6635 57.4244 36.7804 57.2491 36.8972C57.0738 37.0024 56.8868 37.09 56.6882 37.1601C56.4896 37.2303 56.3201 37.2653 56.1799 37.2653C56.028 37.2653 55.9637 37.2127 55.9871 37.1076C55.9988 37.0375 56.0397 36.8797 56.1098 36.6343C56.1682 36.3889 56.2442 36.1027 56.3377 35.7755C56.4195 35.4366 56.5071 35.0802 56.6006 34.7063C56.694 34.3324 56.7817 33.976 56.8635 33.6371C56.9219 33.3684 56.9862 33.0704 57.0563 32.7433C57.1147 32.4628 57.1848 32.1356 57.2666 31.7617C57.3601 31.3878 57.4652 30.9788 57.5821 30.5348C57.6639 30.4647 57.7457 30.4121 57.8275 30.3771C57.921 30.3303 58.0144 30.2953 58.1079 30.2719C58.2014 30.2368 58.3007 30.2135 58.4059 30.2018C58.4994 30.2018 58.5928 30.2076 58.6863 30.2193C58.7681 30.231 58.8499 30.2544 58.9317 30.2894C59.0252 30.3128 59.107 30.3537 59.1771 30.4121C59.142 30.4939 59.1011 30.6108 59.0544 30.7627C59.0077 30.9029 58.9609 31.0548 58.9142 31.2184C58.8674 31.4053 58.809 31.5981 58.7389 31.7968C58.8908 31.5864 59.0602 31.3761 59.2472 31.1658C59.4458 30.9438 59.6562 30.7451 59.8782 30.5699C60.1119 30.3946 60.3573 30.2544 60.6143 30.1492C60.8714 30.0324 61.1343 29.9739 61.4031 29.9739C61.6251 29.9739 61.8237 30.0382 61.999 30.1667C62.1743 30.2953 62.3086 30.4764 62.4021 30.7101C62.5073 30.9321 62.5657 31.2008 62.5774 31.5163C62.6008 31.8318 62.5599 32.1765 62.4547 32.5505L62.2619 33.3217C62.2035 33.567 62.1275 33.8592 62.034 34.198C61.9522 34.5252 61.8471 34.8874 61.7185 35.2847C61.6484 35.5418 61.6192 35.7638 61.6309 35.9508C61.6543 36.1377 61.7711 36.2312 61.9815 36.2312C62.1918 36.2312 62.4547 36.1027 62.7702 35.8456C63.0974 35.5885 63.4245 35.2789 63.7517 34.9166C64.0789 34.5544 64.3885 34.1863 64.6807 33.8124C64.9728 33.4268 65.1948 33.1172 65.3467 32.8835C65.4519 32.7316 65.5512 32.6322 65.6447 32.5855C65.7382 32.5388 65.8083 32.5329 65.855 32.568C65.9134 32.603 65.9426 32.6848 65.9426 32.8134C65.9426 32.9302 65.8959 33.0821 65.8024 33.2691C65.7206 33.4327 65.5921 33.6488 65.4168 33.9176C65.2532 34.1863 65.0546 34.4726 64.8209 34.7764C64.5872 35.0802 64.336 35.3899 64.0672 35.7054C63.7985 36.0092 63.518 36.2896 63.2259 36.5467C62.9338 36.7921 62.6417 36.9907 62.3495 37.1426C62.0691 37.3062 61.8003 37.388 61.5433 37.388ZM72.568 33.3041C72.2174 33.8183 71.8201 34.3207 71.3761 34.8115C70.9321 35.2906 70.4588 35.7229 69.9564 36.1085C69.4656 36.4824 68.9573 36.7862 68.4315 37.0199C67.9174 37.2536 67.4149 37.3705 66.9242 37.3705C66.6671 37.3705 66.3867 37.3062 66.0829 37.1777C65.7907 37.0608 65.522 36.8739 65.2766 36.6168C65.0312 36.3597 64.8326 36.0267 64.6807 35.6177C64.5405 35.2088 64.4996 34.7122 64.558 34.1279C64.6047 33.6488 64.7508 33.1464 64.9962 32.6206C65.2532 32.0831 65.5629 31.5923 65.9251 31.1483C66.299 30.7042 66.7138 30.3362 67.1696 30.044C67.6369 29.7519 68.1043 29.6059 68.5717 29.6059C69.0158 29.6059 69.3371 29.7169 69.5357 29.9389C69.7344 30.1609 69.822 30.4355 69.7987 30.7627C69.7636 31.1249 69.6584 31.4579 69.4832 31.7617C69.3196 32.0655 69.1209 32.3401 68.8872 32.5855C68.6535 32.8309 68.4023 33.0529 68.1336 33.2515C67.8765 33.4502 67.6311 33.6313 67.3974 33.7949C67.1403 33.9702 66.895 34.1396 66.6613 34.3032C66.4276 34.4551 66.2231 34.5953 66.0478 34.7238C66.0595 35.016 66.1121 35.2613 66.2056 35.46C66.299 35.6586 66.4159 35.8222 66.5561 35.9508C66.6963 36.0676 66.8541 36.1552 67.0293 36.2137C67.2163 36.2604 67.4033 36.2838 67.5902 36.2838C67.9875 36.2838 68.4023 36.1611 68.8347 35.9157C69.267 35.6586 69.6876 35.3548 70.0966 35.0043C70.5173 34.642 70.9029 34.2681 71.2534 33.8825C71.6157 33.4969 71.9136 33.1639 72.1473 32.8835C72.2291 32.79 72.3109 32.7374 72.3927 32.7257C72.4862 32.7024 72.5563 32.714 72.603 32.7608C72.6615 32.7958 72.6907 32.8659 72.6907 32.9711C72.6907 33.0646 72.6498 33.1756 72.568 33.3041ZM68.081 30.6049C67.9408 30.6049 67.7713 30.675 67.5727 30.8152C67.3857 30.9555 67.1988 31.16 67.0118 31.4287C66.8248 31.6858 66.6496 32.0071 66.486 32.3927C66.3224 32.7666 66.1997 33.199 66.1179 33.6897C66.2581 33.5846 66.41 33.4794 66.5736 33.3742C66.7372 33.2574 66.9008 33.1347 67.0644 33.0062C67.5668 32.6206 67.9174 32.2817 68.116 31.9896C68.3147 31.6975 68.4257 31.4462 68.449 31.2359C68.4724 31.0139 68.449 30.8561 68.3789 30.7627C68.3088 30.6575 68.2095 30.6049 68.081 30.6049Z" fill="#97905F"/>
<path d="M76.394 42.3629C88.8015 42.254 95.1602 27.7655 92.9732 16.9953C92.195 13.1628 90.179 9.69517 87.4829 6.88602" stroke="#97905F" stroke-width="0.622189" stroke-linecap="round" stroke-linejoin="round"/>
<path d="M84.3168 30.5021C84.3983 30.8651 84.6688 32.414 84.4591 34.4204C84.2342 36.5711 83.4576 39.2431 81.3171 41.5447C81.3162 41.5423 81.3153 41.5398 81.3143 41.5373C81.2995 41.4987 81.279 41.4409 81.254 41.3654C81.2041 41.2143 81.1377 40.9914 81.0751 40.7048C80.9499 40.1316 80.838 39.3037 80.8886 38.2876C80.9894 36.2673 81.7357 33.4997 84.3168 30.5021Z" fill="#97905F" stroke="#97905F" stroke-width="0.0666869"/>
<path d="M91.5601 36.9666C93.5638 36.7574 95.1115 37.0263 95.4775 37.1085C92.4793 39.6887 89.7126 40.4364 87.6923 40.5366C86.6763 40.587 85.8487 40.4743 85.2756 40.349C84.9891 40.2864 84.7661 40.2205 84.615 40.1705C84.5396 40.1455 84.482 40.1241 84.4434 40.1094C84.4402 40.1081 84.4372 40.1062 84.4342 40.105C86.7359 37.9653 89.4093 37.1911 91.5601 36.9666Z" fill="#97905F" stroke="#97905F" stroke-width="0.0666869"/>
<path d="M99.2322 27.0456C97.4282 30.5666 95.1473 32.3018 93.3139 33.1565C92.3918 33.5863 91.5831 33.7942 91.005 33.8943C90.7161 33.9443 90.4849 33.967 90.3261 33.9776C90.2469 33.983 90.1854 33.9852 90.1441 33.9861C90.1409 33.9861 90.1373 33.9855 90.1343 33.9856C91.4594 31.136 93.6436 29.4113 95.5509 28.3923C97.3283 27.4428 98.8629 27.1073 99.2322 27.0456Z" fill="#97905F" stroke="#97905F" stroke-width="0.0666869"/>
<path d="M99.3968 17.1969C98.8203 21.1112 97.2175 23.4878 95.7559 24.8865C95.0208 25.5898 94.3206 26.0459 93.8053 26.3264C93.5477 26.4666 93.3362 26.5634 93.1892 26.6245C93.1158 26.6551 93.0581 26.6769 93.0193 26.691C93.0162 26.6922 93.0129 26.6926 93.01 26.6936C93.349 23.5691 94.8636 21.2338 96.3424 19.656C97.7221 18.1841 99.069 17.3728 99.3968 17.1969Z" fill="#97905F" stroke="#97905F" stroke-width="0.0666869"/>
<path d="M97.0002 7.72818C97.4934 11.6531 96.5866 14.3723 95.5534 16.1114C95.0338 16.9859 94.4822 17.6131 94.061 18.0215C93.8506 18.2255 93.6726 18.3748 93.5474 18.4731C93.4849 18.5221 93.4353 18.5587 93.4017 18.5827C93.3988 18.5847 93.3955 18.5865 93.3929 18.5883C92.8819 15.4871 93.7143 12.8308 94.7162 10.9144C95.6501 9.12795 96.7304 7.98661 97.0002 7.72818Z" fill="#97905F" stroke="#97905F" stroke-width="0.0666869"/>
<path d="M91.0869 1.71016C92.8598 4.94929 92.9991 7.6571 92.6919 9.55817C92.5374 10.5146 92.2698 11.2674 92.0416 11.7805C91.9274 12.037 91.8226 12.2341 91.7468 12.3665C91.709 12.4325 91.6785 12.4826 91.6574 12.516C91.6562 12.5179 91.6548 12.5196 91.6536 12.5214C90.1474 10.007 89.9655 7.38153 90.1846 5.33744C90.3883 3.43718 90.9376 2.04184 91.0869 1.71016Z" fill="#97905F" stroke="#97905F" stroke-width="0.0666869"/>
<path d="M87.2257 24.743C87.4212 25.0814 88.1996 26.5778 88.6237 28.7292C89.0759 31.0236 89.1258 34.0605 87.643 37.2313C87.6403 37.2276 87.6369 37.2241 87.6338 37.22C87.6065 37.1836 87.5665 37.1287 87.517 37.0565C87.418 36.9119 87.2799 36.6966 87.1252 36.4135C86.8156 35.8468 86.4384 35.009 86.1692 33.9259C85.6335 31.7712 85.5243 28.643 87.2257 24.743Z" fill="#97905F" stroke="#97905F" stroke-width="0.0666869"/>
<path d="M88.9957 17.316C89.5367 17.8629 93.1945 22.0056 92.2528 28.565L92.252 28.5639C92.221 28.5375 92.1752 28.4976 92.1178 28.4442C92.0024 28.3368 91.8386 28.174 91.6449 27.954C91.2572 27.5138 90.7505 26.8432 90.2752 25.9231C89.3301 24.0936 88.5083 21.2759 88.9957 17.316Z" fill="#97905F" stroke="#97905F" stroke-width="0.0666869"/>
<path d="M86.0287 8.92741C87.5472 9.62798 88.9831 10.53 90.1748 11.7002C91.7708 13.2673 92.6874 15.153 92.9718 17.3553C92.9968 17.5476 93.0542 17.7807 93.0987 18.0071C93.1402 18.2185 93.1682 18.4255 93.1556 18.5992C89.9653 17.4428 87.3651 14.23 86.3145 11.0889C86.183 10.6946 86.0704 10.2923 86.0227 9.88129C85.9864 9.56438 85.9885 9.24359 86.0287 8.92741Z" fill="#97905F" stroke="#97905F" stroke-width="0.0666869"/>
<path d="M79.8526 2.06109C82.4921 2.459 84.9913 3.72529 86.8807 5.60928L87.2517 5.99537C87.6306 6.40776 87.9555 6.84595 88.231 7.33319C88.3244 7.49841 88.4327 7.65443 88.5382 7.80949C88.644 7.96512 88.7472 8.12056 88.8325 8.28584C88.8428 8.30576 88.8516 8.3271 88.8542 8.34536C88.8554 8.354 88.8554 8.36078 88.8541 8.36608L88.8462 8.37874C88.8419 8.38296 88.835 8.38602 88.8233 8.38716C88.811 8.38826 88.7961 8.38705 88.7802 8.38468C87.6833 8.2231 86.5284 7.81679 85.5118 7.37294C83.8623 6.65272 82.492 5.70823 81.2451 4.43603C80.9712 4.15676 80.5736 3.77027 80.2696 3.34365C79.9718 2.92588 79.7716 2.47826 79.8526 2.06109Z" fill="#97905F" stroke="#97905F" stroke-width="0.0666869"/>
<path d="M26.4223 42.874C14.0148 42.7651 7.6561 28.2766 9.8431 17.5064C10.6213 13.6739 12.6373 10.2063 15.3334 7.3971" stroke="#97905F" stroke-width="0.622189" stroke-linecap="round" stroke-linejoin="round"/>
<path d="M18.4996 31.0132C18.418 31.3762 18.1475 32.9251 18.3573 34.9315C18.5821 37.0822 19.3587 39.7542 21.4992 42.0557C21.5001 42.0534 21.5011 42.0509 21.502 42.0484C21.5168 42.0098 21.5373 41.952 21.5623 41.8765C21.6123 41.7254 21.6786 41.5025 21.7412 41.2159C21.8664 40.6427 21.9784 39.8148 21.9277 38.7987C21.827 36.7784 21.0806 34.0107 18.4996 31.0132Z" fill="#97905F" stroke="#97905F" stroke-width="0.0666869"/>
<path d="M11.2562 37.4776C9.25254 37.2685 7.70484 37.5373 7.3388 37.6196C10.337 40.1998 13.1037 40.9474 15.124 41.0477C16.14 41.0981 16.9676 40.9854 17.5407 40.8601C17.8272 40.7974 18.0502 40.7316 18.2013 40.6816C18.2768 40.6566 18.3343 40.6352 18.3729 40.6204C18.3761 40.6192 18.3791 40.6172 18.3821 40.6161C16.0804 38.4764 13.407 37.7022 11.2562 37.4776Z" fill="#97905F" stroke="#97905F" stroke-width="0.0666869"/>
<path d="M3.58415 27.5567C5.38816 31.0777 7.66907 32.8129 9.50246 33.6675C10.4245 34.0973 11.2333 34.3053 11.8114 34.4053C12.1002 34.4553 12.3314 34.4781 12.4903 34.4887C12.5694 34.494 12.6309 34.4962 12.6722 34.4971C12.6755 34.4972 12.679 34.4966 12.682 34.4966C11.3569 31.6471 9.17275 29.9223 7.26546 28.9034C5.48805 27.9539 3.95345 27.6183 3.58415 27.5567Z" fill="#97905F" stroke="#97905F" stroke-width="0.0666869"/>
<path d="M3.41951 17.708C3.99606 21.6223 5.59882 23.9989 7.06044 25.3976C7.79549 26.1009 8.49566 26.557 9.01098 26.8375C9.26857 26.9777 9.48016 27.0745 9.62713 27.1356C9.7005 27.1661 9.75819 27.188 9.797 27.2021C9.80013 27.2033 9.80338 27.2037 9.80627 27.2047C9.46733 24.0802 7.95267 21.7449 6.47388 20.1671C5.09419 18.6952 3.74728 17.8839 3.41951 17.708Z" fill="#97905F" stroke="#97905F" stroke-width="0.0666869"/>
<path d="M5.8161 8.23924C5.32293 12.1642 6.22966 14.8833 7.26288 16.6224C7.78248 17.497 8.33408 18.1242 8.75531 18.5325C8.96573 18.7365 9.14375 18.8859 9.26895 18.9842C9.33137 19.0332 9.381 19.0697 9.41464 19.0938C9.41746 19.0958 9.42078 19.0975 9.42338 19.0994C9.93444 15.9981 9.10203 13.3418 8.10016 11.4255C7.16617 9.63901 6.08586 8.49767 5.8161 8.23924Z" fill="#97905F" stroke="#97905F" stroke-width="0.0666869"/>
<path d="M11.7294 2.22123C9.9565 5.46035 9.81726 8.16817 10.1244 10.0692C10.279 11.0256 10.5465 11.7785 10.7748 12.2915C10.8889 12.5481 10.9937 12.7452 11.0695 12.8775C11.1073 12.9436 11.1378 12.9937 11.159 13.0271C11.1602 13.029 11.1616 13.0307 11.1627 13.0325C12.669 10.518 12.8509 7.8926 12.6318 5.8485C12.4281 3.94824 11.8787 2.5529 11.7294 2.22123Z" fill="#97905F" stroke="#97905F" stroke-width="0.0666869"/>
<path d="M15.5906 25.2541C15.3951 25.5925 14.6167 27.0889 14.1926 29.2403C13.7404 31.5346 13.6905 34.5716 15.1733 37.7423C15.176 37.7387 15.1794 37.7351 15.1825 37.7311C15.2098 37.6947 15.2498 37.6397 15.2993 37.5675C15.3983 37.423 15.5364 37.2077 15.6911 36.9246C16.0008 36.3579 16.3779 35.5201 16.6471 34.437C17.1828 32.2823 17.292 29.1541 15.5906 25.2541Z" fill="#97905F" stroke="#97905F" stroke-width="0.0666869"/>
<path d="M13.8206 17.8271C13.2797 18.374 9.62188 22.5167 10.5635 29.0761L10.5643 29.075C10.5953 29.0486 10.6411 29.0087 10.6985 28.9553C10.8139 28.8479 10.9777 28.685 11.1714 28.4651C11.5591 28.0249 12.0658 27.3543 12.5411 26.4342C13.4863 24.6047 14.3081 21.787 13.8206 17.8271Z" fill="#97905F" stroke="#97905F" stroke-width="0.0666869"/>
<path d="M16.7876 9.43849C15.2691 10.1391 13.8332 11.0411 12.6415 12.2113C11.0455 13.7784 10.129 15.664 9.84452 17.8664C9.81956 18.0587 9.76208 18.2917 9.7176 18.5182C9.67609 18.7296 9.64809 18.9366 9.66075 19.1102C12.851 17.9539 15.4513 14.741 16.5018 11.6C16.6333 11.2057 16.7459 10.8034 16.7936 10.3924C16.8299 10.0755 16.8278 9.75466 16.7876 9.43849Z" fill="#97905F" stroke="#97905F" stroke-width="0.0666869"/>
<path d="M22.9637 2.57217C20.3242 2.97007 17.825 4.23637 15.9356 6.12036L15.5647 6.50645C15.1857 6.91884 14.8608 7.35703 14.5853 7.84427C14.4919 8.00949 14.3836 8.1655 14.2781 8.32056C14.1723 8.4762 14.0691 8.63164 13.9839 8.79692C13.9735 8.81684 13.9647 8.83817 13.9621 8.85644C13.961 8.86508 13.961 8.87186 13.9623 8.87716L13.9701 8.88981C13.9745 8.89404 13.9813 8.8971 13.9931 8.89824C14.0054 8.89934 14.0202 8.89813 14.0361 8.89576C15.133 8.73418 16.2879 8.32787 17.3045 7.88402C18.954 7.1638 20.3243 6.21931 21.5712 4.9471C21.8451 4.66783 22.2427 4.28135 22.5468 3.85473C22.8445 3.43696 23.0447 2.98934 22.9637 2.57217Z" fill="#97905F" stroke="#97905F" stroke-width="0.0666869"/>
</svg>
